<svg version="1.1" id="Layer_2" xmlns="http://www.w3.org/2000/svg" xmlns:xlink="http://www.w3.org/1999/xlink" x="0px" y="0px" viewBox="0 0 396.8 72.7" style="enable-background:new 0 0 396.8 72.7;" xml:space="preserve" class="ng-scope">
	<title>Use All Five</title>
  <style type="text/css">
    .st0{fill:#010101;}
    .st1{fill:#231F20;}
  </style>
  <path class="st0" d="M0,54.9V27.6h9.3v27.3c0.2,6.3,3.3,9.4,9.4,9.4c2.7,0,5.2-1,7.1-2.9c2-1.8,3.2-4.3,3.3-7V27.6h9.3v44.2h-8.4
    L29.1,68l-0.5-0.5L28.2,68c-1.1,1.5-2.7,2.7-4.4,3.4c-1.9,0.8-3.9,1.3-5.9,1.3c-5.5,0-9.8-1.7-13-5C1.6,64.4,0,60.1,0,54.9z"></path>
  <path class="st0" d="M46.1,59.7l8.5-3.3c0.2,2.3,1.2,4.4,2.9,6c1.6,1.5,3.8,2.4,6,2.3c1.9,0.1,3.7-0.4,5.2-1.6
    c1.2-0.9,1.8-2.4,1.8-3.9c0-2.6-1.9-4.2-5.7-4.9c-1.3-0.2-2.8-0.6-4.7-1c-3.5-0.8-6.7-2.5-9.3-5c-2.3-2.3-3.5-5.4-3.4-8.6
    c-0.1-3.8,1.7-7.3,4.7-9.5c3.1-2.4,6.9-3.6,10.8-3.5c3.9-0.1,7.7,1.2,10.8,3.6c3,2.3,4.9,5.7,5.3,9.5h-9.4c0-1.4-0.7-2.8-1.9-3.6
    c-1.4-1-3-1.5-4.7-1.5c-1.7-0.1-3.3,0.4-4.7,1.4c-1.2,0.8-1.9,2.1-1.9,3.5c0,2.7,1.9,4.4,5.7,5.2l4.7,1c3.5,0.7,6.7,2.3,9.3,4.7
    c2.3,2.3,3.6,5.5,3.4,8.8c0,3.7-1.7,7.3-4.7,9.6c-3.2,2.7-7.2,4.1-11.3,4c-4.1,0.1-8.1-1.1-11.3-3.5C49.1,66.9,46.9,63.5,46.1,59.7z
    "></path>
  <path class="st0" d="M86.2,49.6c0-6.8,2.1-12.3,6.2-16.6c4-4.2,9.6-6.6,15.5-6.4c5.6-0.1,10.9,2.2,14.7,6.3c4,4.2,6,9.6,6,16.2
    l-0.9,2.9H95.5c-0.1,3.3,1.2,6.4,3.5,8.7c2.5,2.4,5.8,3.7,9.3,3.5c2.4,0.1,4.8-0.6,6.9-1.8c1.8-1.1,3.2-2.8,4-4.7l7.9,3.7
    c-4.3,7.5-10.8,11.3-19.3,11.3c-5.8,0.1-11.4-2.3-15.3-6.5C88.3,61.9,86.2,56.3,86.2,49.6z M96.1,43.6h22.6c-0.3-2.4-1.5-4.6-3.5-6
    c-2.1-1.6-4.7-2.5-7.3-2.4C101.7,35.1,97.8,37.9,96.1,43.6L96.1,43.6z"></path>
  <path class="st0" d="M157.9,66.2c-4.4-4.3-6.6-9.8-6.6-16.6c0-6.7,2.2-12.2,6.6-16.6c4.2-4.3,10-6.6,16-6.5c4.5-0.2,9,1.5,12.2,4.7
    l0.5,0.5l0.5-0.5l0.9-3.8h8.5v44.2H188l-0.9-3.8l-0.5-0.5l-0.5,0.5c-3.2,3.2-7.7,4.9-12.2,4.7C167.9,72.8,162.2,70.5,157.9,66.2z
     M164.3,39.2c-2.5,2.9-3.8,6.6-3.6,10.4c-0.1,3.8,1.2,7.5,3.6,10.4c2.4,2.8,5.8,4.1,10.1,4.1c3.7,0.1,7.3-1.5,9.8-4.2
    c2.6-2.8,3.9-6.5,3.8-10.3c0.1-3.8-1.3-7.5-3.9-10.3c-2.5-2.8-6-4.3-9.8-4.2C170.1,35.1,166.7,36.5,164.3,39.2z"></path>
  <path class="st0" d="M207.3,63.3v-63h9.3v63l0.9,8.5h-9.3L207.3,63.3z"></path>
  <path class="st0" d="M228.5,63.3v-63h9.3v63l0.9,8.5h-9.3L228.5,63.3z"></path>
  <path class="st0" d="M312.7,27.6h9.4l10.8,31.6l10.8-31.6h9.4l-16,44.2h-8.5L312.7,27.6z"></path>
  <path class="st0" d="M354.5,49.6c0-6.8,2-12.3,6.1-16.6c4-4.2,9.6-6.6,15.5-6.4c5.6-0.1,10.9,2.2,14.7,6.3c4,4.2,6,9.6,6,16.2
    l-0.9,2.9h-32.1c-0.1,3.2,1.2,6.4,3.4,8.7c2.5,2.4,5.8,3.7,9.3,3.5c2.4,0.1,4.8-0.6,6.9-1.8c1.8-1.1,3.2-2.8,4-4.7l7.9,3.7
    c-4.3,7.5-10.8,11.3-19.3,11.3c-5.8,0.1-11.4-2.3-15.3-6.5C356.5,61.9,354.5,56.3,354.5,49.6z M364.3,43.6h22.6
    c-0.3-2.4-1.5-4.6-3.5-6c-2.1-1.6-4.7-2.5-7.3-2.4C369.9,35.1,366,37.9,364.3,43.6L364.3,43.6z"></path>
  <rect x="296.5" y="27.6" class="st1" width="8.6" height="44.2"></rect>
  <path class="st1" d="M288.9,8.5c4.2,0,7.7,3.4,7.7,7.7h8.5c0-8.9-7.2-16.2-16.2-16.2s-16.2,7.2-16.2,16.2v11.4h-7v7.9h7v36.3h8.5
    V35.5h9.1v-7.9h-9.1V16.2C281.3,11.9,284.7,8.5,288.9,8.5z"></path>
</svg>
